<?xml version="1.0" encoding="UTF-8"?>
<svg id="Layer_2" xmlns="http://www.w3.org/2000/svg" version="1.1" viewBox="0 0 41.2 81.7">
  <!-- Generator: Adobe Illustrator 29.0.1, SVG Export Plug-In . SVG Version: 2.1.0 Build 192)  -->
  <defs>
    <style>
      .st0 {
        fill: #f2b705;
      }
    </style>
  </defs>
  <g id="Layer_1-2">
    <path class="st0" d="M1.3,43.5h8.9v36.8c0,.7.6,1.3,1.3,1.3h15.2c.7,0,1.3-.6,1.3-1.3v-36.7h10.3c.7,0,1.2-.5,1.3-1.2l1.6-13.6c0-.4,0-.8-.3-1s-.6-.4-1-.4h-11.9v-8.5c0-2.6,1.4-3.9,4.1-3.9h7.8c.7,0,1.3-.6,1.3-1.3V1.3c0-.7-.6-1.3-1.3-1.3h-10.7C29.2,0,29,0,28.8,0,26.9,0,20.5.4,15.4,5c-5.6,5.2-4.8,11.4-4.7,12.5v10H1.3c-.7,0-1.3.6-1.3,1.3v13.4c0,.7.6,1.3,1.3,1.3h0Z"/>
  </g>
</svg>