<?xml version="1.0" encoding="UTF-8"?>
<svg id="Layer_2" xmlns="http://www.w3.org/2000/svg" version="1.1" viewBox="0 0 88.4 88.4">
  <!-- Generator: Adobe Illustrator 29.0.1, SVG Export Plug-In . SVG Version: 2.1.0 Build 192)  -->
  <defs>
    <style>
      .st0 {
        fill: #f2b705;
      }
    </style>
  </defs>
  <g id="Layer_1-2">
    <g>
      <path class="st0" d="M44.2,8c11.8,0,13.2,0,17.9.3,4.3.2,6.7.9,8.2,1.5,2.1.8,3.5,1.8,5.1,3.3,1.6,1.6,2.5,3,3.3,5.1.6,1.6,1.3,3.9,1.5,8.2.2,4.7.3,6.1.3,17.9s0,13.2-.3,17.9c-.2,4.3-.9,6.7-1.5,8.2-.8,2.1-1.8,3.5-3.3,5.1s-3,2.5-5.1,3.3c-1.6.6-3.9,1.3-8.2,1.5-4.7.2-6.1.3-17.9.3s-13.2,0-17.9-.3c-4.3-.2-6.6-.9-8.2-1.5-2.1-.8-3.5-1.8-5.1-3.3-1.6-1.6-2.5-3-3.3-5.1-.6-1.6-1.3-3.9-1.5-8.2-.2-4.7-.3-6.1-.3-17.9s0-13.2.3-17.9c.2-4.3.9-6.6,1.5-8.2.8-2.1,1.8-3.5,3.3-5.1s3-2.5,5.1-3.3c1.6-.6,3.9-1.3,8.2-1.5,4.7-.2,6.1-.3,17.9-.3M44.2,0c-12,0-13.5,0-18.2.3-4.7.2-7.9,1-10.7,2-2.9,1.1-5.4,2.6-7.8,5.1s-4,4.9-5.1,7.8c-1.1,2.8-1.8,6-2,10.7C0,30.7,0,32.2,0,44.2s0,13.5.3,18.2c.2,4.7,1,7.9,2,10.7,1.1,2.9,2.6,5.4,5.1,7.8s4.9,4,7.8,5.1c2.8,1.1,6,1.8,10.7,2.1,4.7.2,6.2.3,18.2.3s13.5,0,18.2-.3c4.7-.2,7.9-1,10.7-2.1,2.9-1.1,5.4-2.6,7.8-5.1s4-4.9,5.1-7.8c1.1-2.8,1.8-6,2.1-10.7.2-4.7.3-6.2.3-18.2s0-13.5-.3-18.2c-.2-4.7-1-7.9-2.1-10.7-1.1-2.9-2.6-5.4-5.1-7.8s-4.9-4-7.8-5.1c-2.8-1.1-6-1.8-10.7-2C57.7,0,56.2,0,44.2,0h0Z"/>
      <path class="st0" d="M44.2,21.5c-12.5,0-22.7,10.2-22.7,22.7s10.2,22.7,22.7,22.7,22.7-10.2,22.7-22.7-10.2-22.7-22.7-22.7ZM44.2,59c-8.1,0-14.7-6.6-14.7-14.7s6.6-14.7,14.7-14.7,14.7,6.6,14.7,14.7-6.6,14.7-14.7,14.7Z"/>
      <circle class="st0" cx="67.8" cy="20.6" r="5.3"/>
    </g>
  </g>
</svg>